<svg version="1.1" id="Capa_1" x="0" y="0" xml:space="preserve" width="496.791" height="496.791" xmlns="http://www.w3.org/2000/svg"><style type="text/css" id="style824">.st0{fill:#040006}</style><circle style="fill:#000;fill-opacity:1;fill-rule:evenodd;stroke:none;stroke-width:1.00157" id="path856" cx="248.395" cy="248.395" r="248.395"/><g id="_x32_" transform="matrix(.86826 0 0 .86826 31.48 64.837)" style="fill:#fff;fill-opacity:1;stroke:#fff;stroke-opacity:1"><path class="st0" d="M180.86 177.5c7.31-7.36 13.66-15.63 21.01-23 8.72-8.73 16.82-18.16 25.26-27.22-24.34-23.92-53.37-42.04-91.87-42.04-69.57 0-126.17 56.6-126.17 126.17h74.5c0-28.49 23.18-51.67 51.67-51.67 14.55 0 27.27 7.93 41.17 22.07 1.42-1.4 2.92-2.79 4.43-4.31z" id="path826" style="fill:#fff;fill-opacity:1;stroke:#fff;stroke-opacity:1"/><path class="st0" d="M416.08 211.4c0 28.49-23.18 51.67-51.67 51.67-27.83 0-56.73-36.53-80.19-66.76-12.1 22.51-29.22 41.93-49.29 57.89 30.8 38.79 71.74 83.37 129.48 83.37 69.57 0 126.17-56.6 126.17-126.17z" id="path828" style="fill:#fff;fill-opacity:1;stroke:#fff;stroke-opacity:1"/><g id="g832" style="fill:#fff;fill-opacity:1;stroke:#fff;stroke-opacity:1"><path class="st0" d="M238.32 164.36c30.4-37.72 70.45-79.12 126.09-79.12 69.57 0 126.17 56.6 126.17 126.17h-74.5c0-28.49-23.18-51.67-51.67-51.67-28.39 0-57.9 38.03-81.61 68.59l-4.65 5.98c-2.88 3.69-5.72 7.38-8.54 11.04-33.3 43.23-71.04 92.23-134.36 92.23-69.57 0-126.17-56.6-126.17-126.17h74.5c0 28.49 23.18 51.67 51.67 51.67 25.37 0 45.16-24.01 75.34-63.19 2.91-3.77 5.83-7.57 8.8-11.38l4.55-5.85c4.55-5.87 9.33-12.04 14.38-18.3" id="path830" style="fill:#fff;fill-opacity:1;stroke:#fff;stroke-opacity:1"/></g></g></svg>